<mxfile host="app.diagrams.net" modified="2021-07-21T15:38:39.537Z" agent="5.0 (Windows NT 10.0; Win64; x64) AppleWebKit/537.36 (KHTML, like Gecko) Chrome/91.0.4472.124 Safari/537.36" etag="Hk59K_YNOPhfj89naV5e" version="14.9.1" type="github">
  <diagram id="NxFcthzcbYWBhyUIyIVp" name="Page-1">
    <mxGraphModel dx="1019" dy="505" grid="1" gridSize="10" guides="1" tooltips="1" connect="1" arrows="1" fold="1" page="1" pageScale="1" pageWidth="850" pageHeight="1100" math="0" shadow="0">
      <root>
        <mxCell id="0" />
        <mxCell id="1" parent="0" />
        <mxCell id="rG3MDfSGjUreFpozpJpM-1" value="File&amp;nbsp;" style="rounded=0;whiteSpace=wrap;html=1;fontFamily=Times New Roman;" vertex="1" parent="1">
          <mxGeometry x="50" y="210" width="150" height="30" as="geometry" />
        </mxCell>
        <mxCell id="rG3MDfSGjUreFpozpJpM-3" value="Publish" style="rounded=0;whiteSpace=wrap;html=1;fontFamily=Times New Roman;" vertex="1" parent="1">
          <mxGeometry x="280" y="210" width="160" height="30" as="geometry" />
        </mxCell>
        <mxCell id="rG3MDfSGjUreFpozpJpM-4" value="Link" style="rounded=0;whiteSpace=wrap;html=1;fontFamily=Times New Roman;" vertex="1" parent="1">
          <mxGeometry x="520" y="210" width="150" height="30" as="geometry" />
        </mxCell>
        <mxCell id="rG3MDfSGjUreFpozpJpM-6" value="" style="endArrow=none;dashed=1;html=1;fontFamily=Times New Roman;exitX=0.46;exitY=1.067;exitDx=0;exitDy=0;exitPerimeter=0;" edge="1" parent="1" source="rG3MDfSGjUreFpozpJpM-1">
          <mxGeometry width="50" height="50" relative="1" as="geometry">
            <mxPoint x="120" y="280" as="sourcePoint" />
            <mxPoint x="364" y="247" as="targetPoint" />
            <Array as="points">
              <mxPoint x="119" y="280" />
              <mxPoint x="364" y="280" />
            </Array>
          </mxGeometry>
        </mxCell>
        <mxCell id="rG3MDfSGjUreFpozpJpM-9" value="" style="endArrow=none;dashed=1;html=1;fontFamily=Times New Roman;exitX=0.5;exitY=0;exitDx=0;exitDy=0;entryX=0.5;entryY=0;entryDx=0;entryDy=0;" edge="1" parent="1" source="rG3MDfSGjUreFpozpJpM-3" target="rG3MDfSGjUreFpozpJpM-4">
          <mxGeometry width="50" height="50" relative="1" as="geometry">
            <mxPoint x="360" y="190" as="sourcePoint" />
            <mxPoint x="596" y="210" as="targetPoint" />
            <Array as="points">
              <mxPoint x="360" y="170" />
              <mxPoint x="595" y="170" />
            </Array>
          </mxGeometry>
        </mxCell>
      </root>
    </mxGraphModel>
  </diagram>
</mxfile>
